<svg xmlns="http://www.w3.org/2000/svg" viewBox="0 0 340 340"><defs><style>.a,.b{fill:#fff;}.a{opacity:0;}.b,.c{fill-rule:evenodd;}</style></defs><title>Asset 13</title><circle class="a" cx="170" cy="170" r="170"/><path class="b" d="M191.4,124.41s-8.07-4.33-15.65,1.5-14.78,1.17-16.07-.73-2.89,1.15-2.89,1.15l-12.25,6.17-3.63,4.12-5.68,6.6-5.38,1.27L123.61,142l-5.21-1.38-1.67-2.57V134l-3.08.46-1.65-.81,1.84-4.6,2.84-3.84,2.13-3.88.62-3-1.05-3.94,2.21-4.41,1.79-2.91,2.57-1.49s1.37-8.57,13.43,6.94l.69.6,1.84.73,3,3,4.34-.81,4.36-1.33,5-2.44s3.55-2.25,3.55-2a21.91,21.91,0,0,0,1.6-2.6l1.16-1.71L167,106l3.73-.18,6.48-8.7,5.16-6.37L187,84.21l4.42-4.66L199,71.1l6.59-5.38,2.38-3.33,1.43-3,2.13-2.78,3.1-.9,2.59.72,2.49,3.32.35,3.1,9.34,12.06L233,78.59l1.86,1.76,3.42-.09,12.5-.54,2.83,8.58-1.42,5.35-3.64,5.55L247.24,102l-3.28.36-14.68-2.28-5.42-10,6.13-3-.71-1.87L215,68.23l-1.48.54L185,106.3,215.59,108,244,145l-27.07,18.23-3.43.45-3,.54L205,160.81l.18-3.5-16.35-18.08L182,141.86l-5.07-2.63.71-5.3Z"/><path class="b" d="M81.94,308.71c82-57.39,165.45-112.59,247.71-169.6l.62.46c-.34,4.67-.62,9.35-1,14a2.58,2.58,0,0,1-1.15,1.58c-14.07,9.62-28.19,19.16-42.26,28.77-16.05,10.95-32,22-48.1,32.91-17.08,11.63-34.25,23.2-51.36,34.81-17.52,11.9-35.05,23.77-52.51,35.77-12.19,8.39-24.27,16.95-36.43,25.39a3,3,0,0,1-2.25.42c-4.36-1.2-8.7-2.55-13.06-3.84C82.06,309.17,82,309,81.94,308.71Z"/><path class="b" d="M76.86,307.28l-6-2.34,259-177.1c1.3,4.14.51,6.26-2.94,8.6q-29.43,20-58.82,39.95Q243.61,193,219.21,209.66q-22.41,15.28-44.82,30.61l-68.11,46.52q-13.61,9.3-27.21,18.65A25.58,25.58,0,0,0,76.86,307.28Z"/><path class="b" d="M38.41,174.92l-4.07,2.37c.57-1.38.91-2.14,1.23-2.92l-.36-.42c-.54.23-1.32.33-1.61.76-1.84,2.6-4.77,3.37-7.37,4.64a22.5,22.5,0,0,1-3.08,1.29,4.16,4.16,0,0,1-1.47-.1c.21-.48.28-1.14.63-1.39a26,26,0,0,1,3.81-2.24,18.26,18.26,0,0,0,8.52-8.07c1.64-2.92,2.8-3.21,5.41-1.14.93.75,1.89,1.46,2.79,2.23,3.08,2.57,5.64,2.85,8.83.36,7.69-6,16.4-9.62,25.65-12.49,5.93-1.83,11.4-5.22,17.05-7.94,6.41-3.1,12.8-6.24,19.2-9.35a6.42,6.42,0,0,1,1.14-.3c-.69,3.13-2.75,4.72-5.14,5.94-4.5,2.29-9,4.45-13.48,6.82a6.1,6.1,0,0,0-2.41,2.66,7.77,7.77,0,0,1-8.47,4.28,9.08,9.08,0,0,0-5,.78c-9.72,4.64-19.37,9.42-29,14.26a7.83,7.83,0,0,0-2.63,2.73c-.91,1.33-1.48,2.87-2.32,4.24-.7,1.15-1.58,1.82-3.13,1.14s-3-1.72-2.64-3.3C41.05,177.34,39.49,176.35,38.41,174.92Z"/><path class="b" d="M38.94,181.35c.27.67.46,1.16.66,1.64-5.64,3.7-10.19,5.18-12.09,3.7C31.32,184.91,35,183.2,38.94,181.35Z"/><path class="b" d="M36.51,178.81c-1.82,1-3.6,2.12-5.45,3.08-1.4.75-2.88,1.35-4.32,2.05-1.7.84-3.39,1.31-5-.12l14.38-5.73C36.25,178.34,36.39,178.57,36.51,178.81Z"/><path class="b" d="M133.92,135.47a29.34,29.34,0,0,1-3.08,1.15c-.24.06-.89-.48-.94-.81a1.27,1.27,0,0,1,.61-1.1,27.13,27.13,0,0,1,3.14-.28C133.73,134.77,133.83,135.12,133.92,135.47Z"/><path class="b" d="M41.77,184.72l-6.34,3.19c-.06-.15-.15-.27-.2-.42l6.2-3.44C41.54,184.27,41.66,184.49,41.77,184.72Z"/><path class="c" d="M172.16,89c-1.38.9-2.74,1.85-4.16,2.7a56.12,56.12,0,0,0-13.29,10.87c-3.28,3.72-7.67,6-12.16,8l-2.64,1.16c4.52,1.33,7.08,7.15,5,10.8-1.93,3.34-5.56,3.58-8.37.18a19.77,19.77,0,0,1,2.47-.82c1.6-.29,3.49,0,3.95-2.28.42-2.1-.46-3.61-3.08-5-.07.65-.37,1.4-.14,1.66.8.88.63,1.77-.27,2a2.86,2.86,0,0,1-2.42-.85c-1.15-1.55-.37-3.65,1.88-5.3-2.54.14-4.53-.29-4.82-3.25a17.44,17.44,0,0,1,2.62-.43c5.13-.09,9.46-2.38,13.41-5.31,1.92-1.42,3.2-3.75,5.08-5.26,3.31-2.65,6.81-5.09,10.34-7.43a23.34,23.34,0,0,1,4.87-2.08,4.6,4.6,0,0,1,1.68.08C172.12,88.63,172.14,88.83,172.16,89Z"/><path class="c" d="M128.15,100.32a39.15,39.15,0,0,1-3.8,3.4c-1.34.93-3.35-1-3.14-3.19a20.48,20.48,0,0,1,1.27-5.75,27.07,27.07,0,0,1,17.14-16.14c7.59-2.54,14.34-6.65,21.12-11-1.31,1.45-2.39,3.21-4,4.28a112.89,112.89,0,0,1-9.91,5.84c-4.8,2.58-9.83,4.76-14.48,7.59-3.82,2.32-5.65,6.28-6.27,10.74-.22,1.54-.25,3,2,3.5C128.11,99.83,128.12,100.07,128.15,100.32Z"/><path class="c" d="M171.53,78.17a10.55,10.55,0,0,1-1,2,38.1,38.1,0,0,1-10.78,9.23,20.69,20.69,0,0,0-5.15,4.78c-2.65,3.32-4.34,7.41-8.16,9.77-4,2.48-8.28,3.65-13,2.64a13.22,13.22,0,0,1-1.87-.7c-.05-.21-.09-.42-.14-.62a15.7,15.7,0,0,1,3.24-1.28c7.71-1.13,14.33-4.11,18.48-11.18a13.87,13.87,0,0,1,5.79-5,31.11,31.11,0,0,0,9.18-7.19,28.54,28.54,0,0,1,2.88-2.59Z"/><path class="c" d="M129.44,104.3c.21-3.88,2.87-4.66,5.12-5.67a12.08,12.08,0,0,1,4.28-.89c5.27-.24,8.66-3.08,10.8-7.72,1-2.24,1.76-4.62,3-6.75a52.74,52.74,0,0,1,4.64-6.41c.46-.57,1.47-.67,2.33-1,.09.59.18.81.12.85-4.79,3.93-6.66,9.58-8.78,15.09-1.68,4.41-4.42,7.42-9.24,8.54-3.08.72-6,2.36-9,3.47A17.48,17.48,0,0,1,129.44,104.3Z"/><path class="c" d="M151.31,79.05a50.61,50.61,0,0,1-4.43,3.78c-3.65,2.46-7.52,4.59-11.11,7.14A12.27,12.27,0,0,0,131,97.44c-.11.56-.74,1-1.15,1.5-.37-.59-1.08-1.16-1.12-1.76-.31-5.39,2.72-9.08,6.89-11.47,4.88-2.78,10.17-4.79,15.28-7.12Z"/><path class="c" d="M147.7,114.89c-1.26.19-3.09-1.22-3.5-2.7s1-1.83,1.8-2c4.12-1,6.86-3.62,9.48-6.8,1.45-1.77,3.79-2.8,5.73-4.17l.72.67c-.22.51-.33,1.36-.69,1.49-3.21,1.15-4.81,3.94-6.54,6.56-1.58,2.38-3.31,4.5-6,5.65-.46.19-.7.9-1,1.37Z"/><path class="c" d="M149.87,85.8a39.81,39.81,0,0,1-2.44,3.51,20.69,20.69,0,0,1-11.15,7,6.39,6.39,0,0,1-2-.17c.14-.71.06-1.63.47-2.11a9.15,9.15,0,0,1,2.51-1.81c3.54-1.92,7.4-3.31,10.22-6.43.4-.43,1.28-.38,1.94-.57A5.37,5.37,0,0,0,149.87,85.8Z"/><path class="c" d="M169.55,69.89c1.26,2.23-.94,2.76-1.85,3.55-1.35,1.15-3.08,2.07-5.43.82Z"/><path class="c" d="M170,61.1l-5,4a4.58,4.58,0,0,1,4.58-4.52C169.72,60.73,169.84,60.91,170,61.1Z"/><path d="M147.66,114.94h0v0Z"/><path d="M332.29,123.08a9.84,9.84,0,0,0-2.23,1,46.44,46.44,0,0,0-4.82,2.58l-3.65,2.41c-.92-2.19-1.58-4.05-2.46-5.78-.74-1.47-1.69-3-4.08-1.11-2.69-7.62-5.29-15-7.84-22.31a1.55,1.55,0,0,1,.38-1.23c2.83-3.17.87-10.11-3.62-11.61.34,1.43.64,2.68,1,4.32-1.94-1.75-3.36-1-4.95.13-7.71,5.46-15.49,10.84-23.26,16.23-.19.14-.44.19-.87-.08,1.83-1.34,3.6-2.72,5.46-4q9.86-6.81,19.75-13.55c1.45-1,1.32-2.11.82-3.47-2.25-6.07-4.47-12.16-6.75-18.22a3.08,3.08,0,0,1,.62-3.58,6,6,0,0,0,.9-3.88c-.17-2.86-1.47-5.07-3.82-7.31L252.69,81c-.63-5.16-4.76-3-7.3-3.59a12.59,12.59,0,0,0-7.37.4c-2.79,1.12-3.71.17-4.83-1.24-3.6-4.49-7.33-8.86-10.92-13.36a8.41,8.41,0,0,1-1.81-3.6c-.42-2.62-1.51-4.56-4-5.38a6.8,6.8,0,0,0-7.64,2,8.17,8.17,0,0,0-1.87,3,12.31,12.31,0,0,1-4.53,6.42c-7.12,5.67-13,12.6-18.6,19.69-4.5,5.66-8.74,11.52-13.22,17.19-.54.69-1.85.93-2.86,1a21.51,21.51,0,0,1-2.89-.36,4.52,4.52,0,0,0-4.76,2.74,7.56,7.56,0,0,1-4.85,4.28c-2.39.92-4.61,2.29-6.94,3.41a4.08,4.08,0,0,1-1.33.16l-.5,1.88c.65.15,1.38.58,1.94.4a34.12,34.12,0,0,0,4.18-1.79c1.07-.5,2.09-1.08,3.2-1.66a7.21,7.21,0,0,1,.32.65c.17.76.32,1.53.48,2.3a9,9,0,0,0,1.95-1.6c1.18-1.65,2.22-3.41,3.26-5.16,1.41-2.38,3.5-2.94,6.06-2.61a24.38,24.38,0,0,0,3.5,0c2.41-3.68,4.61-7,6.82-10.38,6.27-9.47,14-17.7,21.77-25.93,2-2.18,4.58-3.86,6.78-5.89a5.26,5.26,0,0,0,1.6-2.61c.51-2.34,2.09-3.76,3.81-5s3.05-1,4.24.8a3.42,3.42,0,0,1,.58,1.12c1.42,6.68,5.85,11.42,10.14,16.25a6.91,6.91,0,0,1,1.08,1.29c2.54,5.3,7.14,4.87,11.79,4.43,2.62-.25,5.27-.43,7.9-.53a1.77,1.77,0,0,1,1.43.77c.63,2.47,1.13,5,1.67,7.5l-.63.15c-.37-1.82-.66-3.65-1.19-5.42-.19-.69-.92-1.73-1.41-1.73a65.82,65.82,0,0,0-7.28.53c-.37,0-.7.55-1,.84,0,.22.06.45.08.68a36.93,36.93,0,0,0,3.94,0c2-.21,3.38.19,3.75,2.51.43,2.63,1.11,5.21,1.55,7.84a5.61,5.61,0,0,1-.46,2l-.71,0c-.43-2.51-.85-5-1.33-7.52a6.61,6.61,0,0,0-.89-2.76A3.31,3.31,0,0,0,243,83.9a24.34,24.34,0,0,0-5.13.8,9.32,9.32,0,0,0-3.39,1.75c2.85,1.33,5.71,0,8.73.48.84,4.36,2.73,8.57,2.24,13.18l-.69.08c-1-3-2.25-5.93-3-9-.62-2.39-.91-2.59-3.18-2-2.79.7-5.69,1-9,1.48l2,4.16L228.72,97c-1.67-2.72-3.26-5.27-5.09-8.22,2-.67,3.51-1.29,5.09-1.7,2-.52,2.47-1.3,1.24-2.91-1.87-2.46-4-4.72-5.92-7.11-2.31-2.83-4.67-5.6-6.81-8.56-1.93-2.66-3.07-3-5.53-.91a142.89,142.89,0,0,0-27.44,30.92,67,67,0,0,0-4.91,10.24c-.86,2,.67,3.79,2.88,3.53,3.24-.4,6.47-1.07,9.73-1.26a5.63,5.63,0,0,1,5.83,3.33,3.26,3.26,0,0,1-1.14,4.43l-5.09,3.48a10.38,10.38,0,0,0-12.36-1.41c-3.77,2-7.48,4.26-11.88,4.46-3,.13-6,.17-7.75-3.19-.16-.29-1.3-.39-1.76-.16-4.09,2-8.13,4.08-12.18,6.13a3.3,3.3,0,0,1-1.35.55c-2.5-.05-3.31,1.67-4.19,3.61a30.14,30.14,0,0,1-3,5c-2.45,3.5-6.1,4.24-10,3.85-.81-.08-1.52-1.06-2.27-1.62.93-.42,2-1.31,2.78-1.14a6.88,6.88,0,0,0,7.08-2.52c1.45-1.69,1.19-2.8-.63-4-1.31-.86-2.64-1.68-4.22-2.7-1.17,1.36-2.54,3-4,4.61a24.54,24.54,0,0,1-3.61,3.79,4.85,4.85,0,0,1-3.44.61c-.58-.12-1.16-1.49-1.3-2.36-.25-1.59-.2-3.16,1.37-4.34a7.87,7.87,0,0,0,1.92-2.73c.26-.5,0-1.24,0-1.88-.65.21-1.59.21-1.89.65-1.46,2.09-3.4,3.23-6.4,3.86a36.14,36.14,0,0,1,1.9-4c2-3,4.79-5.53,5.44-9.38a8,8,0,0,1,1.32-2.37q.48.33,1,.66a9,9,0,0,0,.22,2.72,12,12,0,0,0,1.76,2.51,8.52,8.52,0,0,0,1.63-2.25,16.6,16.6,0,0,0,.42-3.76,4.62,4.62,0,0,1,2.28-4c.39-.23.49-.94.73-1.43-.67,0-1.49-.34-2-.06-1.68,1-3.22,2.21-4.89,3.21a6.27,6.27,0,0,1-2.09.43c.06-.72-.13-1.58.2-2.14.93-1.64,2.06-3.17,3.1-4.74a14,14,0,0,0,1.12-1.79,1.29,1.29,0,0,0,0-1.12,1.19,1.19,0,0,0-1.07-.11,13.26,13.26,0,0,0-7.8,8.83,6.05,6.05,0,0,0,1,4.27c.8,1.25,1,2.31.37,3.47-1,1.76-2.12,3.44-3.28,5.11s-2.37,2.94-3.31,4.55c-1.43,2.42-.24,4.57,2.56,4.63h1.6c.68,1.71-.53,2-1.55,2.49-5.58,2.53-11.24,4.92-16.74,7.63-4.19,2.08-8.1,4.76-12.31,6.8a84.94,84.94,0,0,1-9.8,3.6c-8,2.66-15.67,5.85-22.58,10.81-5.43,3.89-5.53,3.76-10.73-.24-.78-.6-1.51-1.26-2.3-1.84-2.91-2.12-4.12-1.84-6.12,1.14a29,29,0,0,1-4.14,5.5,18.11,18.11,0,0,1-8.68,4.78c-2.38.5-4.53,2.22-6.69,3.54-2.31,1.42-4.51,3-6.76,4.54.06.23.14.45.19.69a14.54,14.54,0,0,0,2.68-.77c2.12-1.07,4.15-2.32,6.24-3.42a19.37,19.37,0,0,1,2.65-.95c.72,2.44.44,2.85-1.52,3.12a3.61,3.61,0,0,0-1.89.94,10.59,10.59,0,0,1-7.17,3c-.65,0-1.33-.51-2-.75-.47-.18-1-.28-1.47-.42a6.26,6.26,0,0,0,.05,1.74,1.89,1.89,0,0,0,1.06,1c3.06,1.08,6.11,1.44,9.06-.38.23-.14.47-.32.7-.47,4.44-2.92,5.81-2.76,9.81.68.92.8,2.29,1.05,3.47,1.54.5.22,1.19.22,1.51.57,1.49,1.65,3.1,1.31,4.78.49,3.31-1.63,6.69-3.16,9.92-4.95a15.1,15.1,0,0,0,6.24-7.14c.77-1.61,2.76-2.93,4.48-3.72,9.17-4.31,18.42-8.42,27.66-12.55a6,6,0,0,1,2.35-.49,12.34,12.34,0,0,0,10.33-5,9.25,9.25,0,0,1,3-2.7c6.58-3.23,13.4-6,19.8-9.56,3.35-1.85,5.66-1.33,8.75.38,3.57,2,7,0,9.69-2.46,2-1.78,3.23-4.35,4.87-6.5a8.23,8.23,0,0,1,2.25-2.3c4-2.24,8.13-4.4,12.25-6.45,1-.51,2.56-1,3.48-.62,7.07,3,13.75,1.56,20.12-1.88,3.18-1.72,6.17-1.44,9.83-.55-4.56,3.36-8.81,6.48-13,9.6l.35.54c11.36-5.59,21-14.06,31.89-20.19,0-.06,0,.07,0,.18-.24.92-.5,1.84-.76,2.76.89-.33,1.82-.64,2.72-1,.52-.21,1-.49,1.65-.78.18,2-.16,2.56-2.49,4,1.12,1.58.08,2.32-1.17,3.16q-13.17,8.64-26.25,17.43A2.76,2.76,0,0,1,179,139c-.93-.59-1.8-1.27-3-2.11-.11.78-.34,1.27-.19,1.62.48,1.31,4.28,3.62,5.62,3.33a5.23,5.23,0,0,1,4.57,1.36c5.23,4,10.59,7.85,15.85,11.8a15.84,15.84,0,0,1,1.91,2.2,12.63,12.63,0,0,0,2-.93c3.49-2.35,6.94-4.77,10.43-7.1a7.36,7.36,0,0,1,1.87-.7l.13-.1.09,0c.48-.56.91-1.41,1.48-1.52a17.5,17.5,0,0,1,4.28-.11,1.69,1.69,0,0,1,1.2.94c.54,1.37-1.25,5.25-2.61,5.91,1.11-4.46-.13-6-4.35-5.22l0,.06-.18.06-1.11.9c0,.24,0,.47,0,.71l3.58.73c-.19.45-.27,1.3-.73,1.67a7.88,7.88,0,0,1-2.34.79c0,.3,0,.29,0,.58l3.35,1.17c-1.52,1.09-3,2.15-4.48,3.19a22,22,0,0,0-2.6,1.77c-2.35,2.22-4.62,1.6-7,.11-.91-.57-1.78-1.92-3.51-.69.81.68,1.44,1.28,2.14,1.78,1.36,1,2.73,1.93,4.16,2.79a2.24,2.24,0,0,0,1.69.2,4.05,4.05,0,0,1,4.38.72c5.33,4.1,10.73,8.09,16.09,12.14a15.69,15.69,0,0,1,1.3,1.22c-.44.6-.84,1.15-1.23,1.7-.19.23-.39.47-.59.69q2.79,3.45,5.59,6.88l1.35-.91-1.3,1-.05,0c-.79.53-1.6,1.06-2.38,1.61q-33.1,22.5-66.21,45-26,17.69-51.9,35.4l-14.66,10L86.85,289.66l-7.36,5-3.69,2.52c-1.94,1.34-4,2.57-6,3.8-1.12.68-3.25,1.34-3.56,2.81a1.69,1.69,0,0,0,.36,1.42,3,3,0,0,0,1.55.84,16.72,16.72,0,0,1,1.92.77A26.51,26.51,0,0,0,72.9,308c.9.38,1.81.73,2.72,1.09,1.93.75,3.88,1.48,5.85,2.16,5.28,1.86,10.66,3.46,16.1,4.8l1.24.29a169.84,169.84,0,0,0,36.2,5c8.5.16,17-.19,25.5-.69a158.21,158.21,0,0,0,38.75-7.55,194.55,194.55,0,0,0,81.2-50.72,188.6,188.6,0,0,0,35.75-53.56,191.06,191.06,0,0,0,16.25-77.79c0-1.34,0-2.68,0-4,0-.67,0-1.34-.05-2A16.47,16.47,0,0,0,332.29,123.08ZM130.52,134.71a25.1,25.1,0,0,1,3.14-.29c.08.35.18.69.27,1a28.53,28.53,0,0,1-3.08,1.15c-.23.06-.88-.48-.94-.81S130.24,134.76,130.52,134.71Zm-108.64,49L36.25,178c.12.25.25.48.38.72-1.82,1-3.6,2.11-5.45,3.08-1.4.75-2.88,1.34-4.31,2C25.17,184.72,23.48,185.19,21.88,183.76Zm5.76,2.87,11.41-5.33c.27.66.47,1.16.66,1.64C34.08,186.63,29.54,188.11,27.64,186.63Zm7.9,1.22c0-.15-.14-.27-.19-.42L41.54,184c.11.23.23.44.34.67Zm74.07-41.72c-4.5,2.29-9,4.45-13.47,6.81a6.22,6.22,0,0,0-2.41,2.66,7.75,7.75,0,0,1-8.46,4.28,9,9,0,0,0-5,.78c-9.71,4.63-19.35,9.41-28.95,14.25a7.81,7.81,0,0,0-2.62,2.73c-.91,1.31-1.48,2.86-2.31,4.23-.71,1.15-1.58,1.82-3.13,1.13s-3-1.71-2.64-3.29c.53-2.42-1-3.41-2.1-4.83l-4.07,2.36c.57-1.37.91-2.14,1.23-2.92l-.36-.42c-.55.24-1.32.34-1.62.76-1.83,2.6-4.75,3.37-7.36,4.64a22.38,22.38,0,0,1-3.07,1.29,4.16,4.16,0,0,1-1.47-.1c.21-.48.28-1.14.63-1.39a25.94,25.94,0,0,1,3.8-2.24,18.29,18.29,0,0,0,8.52-8.06c1.63-2.91,2.79-3.2,5.4-1.14.93.75,1.89,1.46,2.79,2.22,3.07,2.57,5.63,2.85,8.82.37,7.68-6,16.38-9.61,25.62-12.47,5.92-1.84,11.39-5.22,17-7.94,6.39-3.09,12.78-6.23,19.18-9.34a6.83,6.83,0,0,1,1.14-.3C114.05,143.33,112,144.91,109.61,146.13ZM301.5,108.6l5.19,12.83-.6.25c-1.72-4.28-3.42-8.57-5.14-12.85Zm15.93,15.81c.65,1.44,1.12,2.49,1.6,3.54l-.29.23a3.73,3.73,0,0,1-.79-.68c-.87-1.35-1.79-1.16-3-.34q-9.39,6.51-18.85,12.93c-1.78,1.21-3.65,2.28-5.48,3.43-.12-.19-.25-.38-.36-.57Zm-33.36,15.11c.43.71,1,1.32,1.45,2a9.25,9.25,0,0,1,.58,1.68l-.8.2-12-19.16.54-.48a5.16,5.16,0,0,1,1,.87C278,129.61,281,134.58,284.07,139.52Zm-14,22c2-1.51,4.05-3,6.16-4.35.55-.36,1.39-.21,2.11-.3l.21.78-21.39,14.69c-.69-.93-1.11-2-1.87-2.39s-2-.24-3.28-.35c.33-.51.41-.79.59-.92q12.29-8.21,24.61-16.38c.74-.49,1.56-.88,2.35-1.32l5.6-4.33c.14.22.3.44.44.65l-5.89,3.84c-3.76,2.76-7.53,5.51-11.28,8.29-.54.39-1.05.84-1.63,1.32C267.82,162.17,268.76,162.55,270.07,161.57Zm-16.89,9.88c-.65,2-1.2,3.65-1.76,5.34-1.92-1.39-1.41-4.06-4.63-3.74C248.92,170.75,251,171.64,253.18,171.45ZM271,131.85c2.58,4.27,5.33,8.44,8,12.62,2.06,3.2,2,3.42-1.4,5.1-.3.16-.63.3-1.2.56-3.88-5.68-7.7-11.22-11.43-16.83a2,2,0,0,1,.18-1.88C267.9,129.06,268.9,128.42,271,131.85Zm-1.87-17.93,6.13-4,.26.42-6,4.06Zm-6,7.81,2.43,4.19A3.28,3.28,0,0,1,263.09,121.73Zm1,15.34c2.73,3.74,5.5,7.45,8.18,11.24a31.83,31.83,0,0,1,2,3.53,2.17,2.17,0,0,1-.35.46c-4.25,3.24-4.17,3.17-7.36-1.11-2.94-3.95-6.09-7.71-9.14-11.57-.48-.6-.88-1.25-1.46-2.06.71-.62,1.19-1.13,1.75-1.53C261.16,133.64,261.68,133.73,264.1,137.07Zm-7.61,4q4.74,6.18,9.4,12.41c1.78,2.37.68,5.11-2.26,5.61a1.78,1.78,0,0,1-1.43-.49c-4.32-5.22-8.6-10.48-13-15.87a24.45,24.45,0,0,1,2.14-2.28C253.61,138.66,254.73,138.79,256.49,141.08ZM294.4,92.72c-2-5.3-4.1-10.57-6.15-15.87l.65-.24q3.11,7.9,6.22,15.82C294.88,92.52,294.64,92.61,294.4,92.72Zm6.49-4.4-.63.27q-3.69-9.63-7.42-19.25l.78-.31ZM257.3,81.71q11.91-8.25,23.86-16.43c3.74-2.58,7.5-5.14,11.7-8,.61,2.12,1.12,3.88,1.62,5.63l-.57.15c-1.48-2.76-1.92-2.84-4.66-1l-31.13,21c-.51.33-1.06.59-1.59.88-.18-.16-.36-.32-.53-.49A7.19,7.19,0,0,1,257.3,81.71ZM255,94.61c.6.27,1.44.36,1.74.82,3.45,5.36,6.82,10.77,10.16,16.2.19.3,0,.84,0,1.27-.49-.08-1.22,0-1.4-.26-3.67-5.76-7.29-11.56-10.9-17.35C254.69,95.07,254.84,94.84,255,94.61Zm-5.55,5.62c3.64,5.66,7.24,11.23,10.93,16.92-1.19,1.35-2.4,2.74-3.82,4.34-4.29-6.14-8.32-11.9-12.66-18.09C246.92,103.92,248.29,103,249.45,100.23Zm-7.35,4.62c4.21,6.34,8,12.09,11.89,18a49.12,49.12,0,0,1-4.94,3.25,2.42,2.42,0,0,1-2.23-.65c-3.57-4.84-7-9.76-10.49-14.69a1.49,1.49,0,0,1,0-1.41C238.16,107.81,240,106.43,242.1,104.85Zm3.19,23.43c-1.06,1.37-2.73,2.25-4.21,3.36a9.6,9.6,0,0,1-2.14-1.47q-5.4-6.75-10.65-13.6a1.84,1.84,0,0,1,.16-1.77,30.85,30.85,0,0,1,4.87-3.06c.36-.18,1.38.44,1.77,1,3.13,4.06,6.25,8.13,9.23,12.31C245,125.92,245.68,127.75,245.29,128.28Zm-8.81-32.5c1.23-.85,2.14-.92,2.72.7a5.75,5.75,0,0,0,.69,1c1.62,2.61,1.41,3.36-1.12,5.11-5.61,3.91-11.21,7.87-16.81,11.79a3.51,3.51,0,0,1-.77.29c-.15-4.45-.15-4.45-4.33-5.64,2.65-1.83,5-3.51,7.4-5.13C228.33,101.22,232.43,98.53,236.48,95.78Zm-32.32,8.55c-3.56.35-7.2.2-10.79.21a4.5,4.5,0,0,1-1.79-.53c-1.87-.9-2.36-2.09-1.19-3.77,4.25-6,8.62-11.92,13-17.84,1.41-1.92,2.89-3.8,4.43-5.6,2.14-2.48,4.36-4.87,6.84-7.63,1,1.18,1.79,2,2.52,2.85,3.41,3.91,6.79,7.83,10.19,11.74,1.72,2,1.6,2.44-.91,3.23l-.8.23c-4,1.2-4.17,1.47-2.17,5.24,1.24,2.35,2.74,4.56,4.23,7-2.93,2-5.82,4.08-8.77,6a1.51,1.51,0,0,1-1.34,0C213.31,102.9,208.76,103.88,204.16,104.33Zm6.93,9.08c1.72-2.23,4.31-2.66,7.79-1.13q-.9,2.84-1.79,5.72l-.65-.23C215,113.78,214.55,113.41,211.09,113.41Zm-2,40c-3.68,2.62-3.73,2.69-7.29.1-4.35-3.17-8.59-6.48-12.92-9.66-1.33-1-1.3-2-.18-2.89,1.47-1.22,3.1-2.27,4.58-3.34a12.82,12.82,0,0,1,2.17,1.15c4.66,3.8,9.3,7.6,13.9,11.48C210.9,151.62,210.78,152.21,209.05,153.44Zm11.12-9.29c-.5,3.81-4,4.62-6.71,6.08-.8.42-2.73-.53-3.71-1.36C205.13,145,200.68,141,196.11,137a15.88,15.88,0,0,1,7.88-5.61,7.88,7.88,0,0,0,3.58-2.29c2.11-2.65,4.87-4.06,7.87-5.33,1.39-.6,2.45-2,3.74-2.85,1.77-1.23,3.58-2.38,5.4-3.5a2.1,2.1,0,0,1,3,.64c3.3,4.19,6.63,8.36,9.87,12.59,1.25,1.63,1.06,3.11-.63,4.13s-3.83,1.81-5.74,2.71a2.46,2.46,0,0,0-1,.68A13.67,13.67,0,0,1,220.17,144.15Zm3.9,1.68a5.77,5.77,0,0,1,.1-.6L252,126.5c.08.13.16.27.26.41l-2.93,2.62c.09.16.16.32.27.49,2.51-1.23,5.06-2.46,7.6-3.69a2.28,2.28,0,0,1,.5.36c2.44,3,2.47,3.05-.69,5.23-9.19,6.37-18.4,12.69-28.16,19.42C229.84,147,228,145.45,224.07,145.83Zm6.08,10a9.76,9.76,0,0,0,2.45-1.74,14.06,14.06,0,0,1,7.48-5.09c1-.25,1.86-1.34,2.74-2.09a20.84,20.84,0,0,1,1.82-1.71c2.69-1.77,3.07-1.63,5.11.84,3.15,3.85,6.39,7.63,9.59,11.43,2,2.43,1.84,3.56-.71,5.27-2.71,1.83-5.35,3.83-8.18,5.47-1.43.83-3.2,1-5.08,1.6-.07,2-2.38,4.39-4.71,4.55a1.91,1.91,0,0,1-1.29-.46Q232.19,167.45,225,161a15.18,15.18,0,0,1-1.07-1.28C226.11,158.35,228.14,157.1,230.15,155.83Zm-8.47,12.41c-1.55-1.19-3.11-2.36-4.76-3.63,2.21-2.8,4.93-4,7.61-1.49,4,3.69,8.34,7,12.55,10.49,1,.83,1.71,1.84.82,3.09-1.16,1.66-2.72,2-4.1.93C229.73,174.52,225.72,171.37,221.68,168.24Zm12.85,13.48c4.14-2.82,7.3-7.13,13.06-6.3.15.19.29.39.44.59l-2.52,1.5c.39.49.84,1.08,1.28,1.65C242.33,183.46,238.82,184.27,234.53,181.72Zm-48.75,133.2c-3.56.88-7.17,1.56-11.06,2.36,0-5.21,0-10.12,0-15q-.17-15.28-.4-30.57a3.82,3.82,0,0,1,1.94-3.85c.9-.53,1.26-2,2.11-2.65,2.27-1.81,4.68-3.41,7-5.1l.85.39c0,4.27-.06,8.55,0,12.82.21,13.24.46,26.48.62,39.73C186.86,313.68,186.28,314.79,185.78,314.92Zm2.42-53.75c.3,0,.6,0,.89,0a276,276,0,0,1,.07,30.44Q188.68,276.37,188.2,261.17Zm3.31,52.69-2.17,0v-8c.29,0,.4,0,2.17,0Zm49.65-21.77L196,266.71c.16-.32.32-.61.49-.93l45,25.67ZM244,290.2a1.59,1.59,0,0,1-1.31-.08q-14.31-8.17-28.61-16.42-8.46-4.86-16.9-9.75c-1.85-1.07-2.16-4.77-.49-6.14l1.94-1.58c1.37-1.09,2.61-1.33,4.12-.05a28.81,28.81,0,0,0,4.09,2.53q20.16,11.6,40.31,23.19c1.56.9,3.19,1.66,5.4,2.8C249.39,286.76,246.72,288.52,244,290.2Zm33.57-59c-.12,8-.3,16-.41,24,0,2.09.25,4.21.19,6.3a3.93,3.93,0,0,1-.9,2.54c-3.34,3.3-6.8,6.46-10.23,9.65a7.24,7.24,0,0,1-1.19.69c.14-1.81.36-3.3.36-4.79,0-10.63-.28-21.27-.22-31.89,0-8,.39-15.9.6-23.83,0-.57,0-1.14,0-1.7.09-1.71-.37-3.8.43-5.07a17.53,17.53,0,0,1,7.54-6.44c1.08-.51,2.22-.85,3.73-1.41.16,2,.44,4,.42,6C277.87,213.92,277.73,222.57,277.58,231.23Zm2.59,27.41a9.33,9.33,0,0,1-.59,2.2l-.3-.18V208.2l.75,0a15.2,15.2,0,0,1,.26,2.11q0,19.35-.09,38.71C280.19,252.2,280.24,255.43,280.17,258.64ZM310,217.21l-9.41-5c.12-.2.23-.41.34-.62l9.38,5Zm1.3-2.18c-2-1.09-3.89-2.09-5.75-3.14q-9.18-5.23-18.35-10.49c-1.33-.77-1.74-2.93-.94-4.64.56-1.17,2.75-2.23,3.78-1.7,8.13,4.16,16.25,8.37,24.57,12.67C313.45,210.4,312.47,212.56,311.34,215ZM329,153.57a2.58,2.58,0,0,1-1.14,1.57c-14.07,9.61-28.17,19.14-42.22,28.74-16,10.94-32,22-48.05,32.88q-25.6,17.43-51.31,34.77c-17.49,11.89-35,23.75-52.45,35.74-12.18,8.37-24.24,16.93-36.39,25.36a3,3,0,0,1-2.24.41c-4.36-1.2-8.7-2.54-13.06-3.83,0-.23-.1-.45-.16-.69,81.91-57.33,165.27-112.47,247.44-169.42l.62.46C329.73,144.23,329.45,148.9,329,153.57Zm-2.35-17.13q-29.4,19.92-58.76,39.91-24.41,16.58-48.79,33.23l-44.77,30.57-68,46.47q-13.59,9.3-27.19,18.63c-.74.51-1.39,1.16-2.2,1.84l-6-2.34,258.7-176.91C330.91,132,330.12,134.1,326.68,136.44Z"/><path class="c" d="M269.85,186.7c.81-1.65,4.14.38,3.59-2.64-.11-.63-1.56-1-2.75-1.7.15-1.3,1.64-1.62,2.84-1.84a2.88,2.88,0,0,1,3.32,2.27,3.64,3.64,0,0,1-1.81,4.47C272.83,188.64,271.7,188.55,269.85,186.7Z"/><path class="c" d="M181.72,247.11c.8-1.66,4.13.38,3.58-2.65-.11-.63-1.56-1-2.74-1.7.14-1.3,1.64-1.62,2.83-1.83a2.86,2.86,0,0,1,3.32,2.26,3.63,3.63,0,0,1-1.81,4.47C184.69,249.05,183.56,249,181.72,247.11Z"/></svg>